# xmcd
#
# Track frame offsets:
#	150
#	14130
#	26817
#	38722
#	52317
#	64645
#	77930
#	90387
#	103430
#	118422
#	130022
#	141467
#	150597
#	164452
#	176737
#	191272
#	204297
#	222082
#	236530
#	250610
#	263722
#	277392
#	291295
#	303810
#
# Disc length: 4205 seconds
#
# Revision: 0
# Processed by: cddbd v1.5.1PL2 Copyright (c) Steve Scherf et al.
# Submitted via: audiograbber 1.83.01
#
DISCID=69106b18
DTITLE=памос лаяимос  - апаккавтгйа апо сема and яелпетийа йаи каийа
DYEAR=1996
DGENRE=каийа
TTITLE0=апаккавтгйа апо 'сема 
TTITLE1=ас текеиымоуле 
TTITLE2=немувтгс 
TTITLE3=сам та лаялаяа тгс покгс 
TTITLE4=лутикгмиа 
TTITLE5=глоума сицоуяос 
TTITLE6=ейама лецако кахос 
TTITLE7=о йоуяекгс 
TTITLE8=баке ле стгм ацйакиа соу 
TTITLE9=жтамеи о йаулос 
TTITLE10=бкалисса 
TTITLE11=дыдейа вяомым йояитси 
TTITLE12=адийа вамеис то йаияо соу 
TTITLE13=осо с' ацапы ацапгсе ле 
TTITLE14=акгтг л' еипес лиа бяадуа 
TTITLE15=жояас жоустами буссими 
TTITLE16=ацапгса йаи лисгса 
TTITLE17=амхяыпос око йайиа 
TTITLE18=циа йояоидо л' евеис паяеи 
TTITLE19=се цоустаяы 
TTITLE20=поиа алаятиа евы йамеи йаи помы 
TTITLE21=лпяабо циа тг ластояиа соу 
TTITLE22=циа сема куымы йаи помы 
TTITLE23=кица вяомиа йаи йака 
EXTD=
EXTT0=
EXTT1=
EXTT2=
EXTT3=
EXTT4=
EXTT5=
EXTT6=
EXTT7=
EXTT8=
EXTT9=
EXTT10=
EXTT11=
EXTT12=
EXTT13=
EXTT14=
EXTT15=
EXTT16=
EXTT17=
EXTT18=
EXTT19=
EXTT20=
EXTT21=
EXTT22=
EXTT23=
PLAYORDER=
